<svg width="293" height="33" viewBox="0 0 293 33" fill="none" xmlns="http://www.w3.org/2000/svg">
<path d="M17.39 2.43001C17.38 3.00001 17.37 3.56002 17.37 4.11002C17.37 4.69002 17.41 5.40001 17.49 6.23001C17.57 7.06001 17.61 7.8 17.61 8.44H17.33C17.14 7.3 16.82 6.25001 16.34 5.29001C15.86 4.32001 15.28 3.48001 14.59 2.76001C13.9 2.04001 13.12 1.47 12.26 1.05C11.4 0.630003 10.46 0.430008 9.45 0.430008C8.65 0.430008 7.89 0.58001 7.17 0.87001C6.45 1.16001 5.83 1.58002 5.3 2.11002C4.78 2.65002 4.36 3.28 4.06 4.02C3.76 4.76 3.6 5.59001 3.6 6.51001C3.6 7.52001 3.86 8.38001 4.38 9.09001C4.9 9.80001 5.56 10.43 6.36 10.98C7.16 11.53 8.03 12.03 8.99 12.46C9.95 12.89 10.86 13.32 11.75 13.75C12.73 14.21 13.7 14.73 14.65 15.29C15.6 15.86 16.45 16.53 17.21 17.29C17.96 18.06 18.57 18.93 19.03 19.92C19.49 20.91 19.72 22.05 19.72 23.38C19.72 24.67 19.46 25.85 18.94 26.93C18.42 28.01 17.7 28.93 16.78 29.69C15.86 30.45 14.77 31.06 13.51 31.49C12.25 31.92 10.87 32.14 9.36 32.14C7.85 32.14 6.41 31.88 5.12 31.38C3.83 30.88 2.59 30.22 1.39 29.42L0.189999 31.22H0C0 30.27 0.0199992 29.52 0.0499992 28.96C0.0799992 28.41 0.0900002 27.82 0.0900002 27.21C0.0900002 26.56 0.0699992 25.82 0.0499992 24.97C0.0199992 24.13 0 23.21 0 22.23H0.279999C0.429999 23.4 0.73 24.57 1.18 25.72C1.62 26.88 2.22 27.91 2.98 28.82C3.73 29.73 4.62 30.46 5.65 31.02C6.68 31.58 7.84 31.85 9.13 31.85C10.08 31.85 11 31.69 11.87 31.37C12.74 31.05 13.51 30.6 14.17 30.03C14.83 29.46 15.35 28.76 15.74 27.93C16.13 27.1 16.32 26.17 16.32 25.16C16.32 24.21 16.08 23.34 15.58 22.57C15.08 21.8 14.47 21.11 13.71 20.51C12.96 19.91 12.12 19.37 11.2 18.89C10.28 18.41 9.4 17.97 8.57 17.57C7.59 17.11 6.62 16.62 5.67 16.11C4.72 15.6 3.87 15 3.11 14.31C2.36 13.62 1.75 12.79 1.29 11.82C0.830001 10.85 0.599998 9.66002 0.599998 8.25002C0.599998 7.14002 0.840001 6.10001 1.31 5.12001C1.79 4.14001 2.42 3.28001 3.22 2.54001C4.02 1.80001 4.94 1.22001 5.98 0.790009C7.02 0.360009 8.11 0.140015 9.25 0.140015C10.39 0.140015 11.54 0.35001 12.61 0.76001C13.69 1.17001 14.7 1.77001 15.65 2.53001L17.22 0.780014H17.4C17.4 1.30001 17.4 1.85 17.38 2.41L17.39 2.43001Z" fill="#F4F5D7"/>
<path d="M42.24 21.57C42.24 23.11 41.98 24.52 41.46 25.81C40.94 27.1 40.21 28.21 39.3 29.15C38.38 30.09 37.27 30.82 35.98 31.36C34.69 31.9 33.29 32.17 31.79 32.17C30.29 32.17 28.84 31.9 27.55 31.36C26.26 30.82 25.14 30.09 24.19 29.15C23.24 28.21 22.49 27.1 21.95 25.81C21.41 24.52 21.14 23.12 21.14 21.62C21.14 20.02 21.41 18.58 21.95 17.29C22.49 16 23.23 14.89 24.19 13.97C25.14 13.05 26.27 12.34 27.57 11.85C28.87 11.36 30.28 11.11 31.78 11.11C33.28 11.11 34.58 11.35 35.86 11.85C37.13 12.34 38.24 13.05 39.18 13.97C40.12 14.89 40.86 16 41.41 17.29C41.96 18.58 42.24 20.01 42.24 21.57ZM31.78 11.39C30.68 11.39 29.72 11.68 28.92 12.26C28.12 12.84 27.46 13.6 26.94 14.55C26.42 15.5 26.03 16.59 25.76 17.83C25.5 19.07 25.37 20.33 25.37 21.61C25.37 22.89 25.49 24.16 25.74 25.39C25.98 26.63 26.38 27.73 26.92 28.69C27.46 29.65 28.12 30.42 28.92 31.01C29.72 31.59 30.67 31.88 31.78 31.88C32.88 31.88 33.84 31.58 34.64 30.99C35.44 30.39 36.08 29.61 36.57 28.65C37.06 27.69 37.42 26.59 37.65 25.35C37.88 24.11 38 22.85 38 21.57C38 20.29 37.88 19.03 37.63 17.81C37.38 16.59 37.01 15.5 36.5 14.55C35.99 13.6 35.35 12.84 34.57 12.26C33.79 11.68 32.86 11.39 31.78 11.39Z" fill="#F4F5D7"/>
<path d="M45.6 4.42999C45.6 3.84999 45.52 3.37999 45.37 3.01999C45.22 2.66999 45 2.39999 44.72 2.20999C44.44 2.02999 44.12 1.91 43.75 1.86C43.38 1.81 42.97 1.78999 42.51 1.78999V1.61C43.65 1.52 44.8 1.33 45.97 1.06C47.14 0.779998 48.26 0.43 49.33 0V13.59C49.91 12.98 50.67 12.43 51.58 11.96C52.5 11.48 53.7 11.25 55.17 11.25C56.65 11.25 57.97 11.5 59.16 12.01C60.34 12.52 61.35 13.22 62.18 14.1C63.01 14.99 63.64 16.05 64.09 17.28C64.53 18.51 64.76 19.83 64.76 21.24C64.76 22.71 64.55 24.11 64.14 25.43C63.73 26.75 63.1 27.91 62.28 28.91C61.45 29.91 60.4 30.7 59.15 31.28C57.89 31.86 56.42 32.15 54.73 32.15C53.32 32.15 52.1 31.87 51.09 31.32C50.08 30.77 49.17 30.05 48.37 29.16L45.83 31.83H45.6V4.42V4.42999ZM60.52 21.66C60.52 20.48 60.4 19.29 60.17 18.08C59.94 16.87 59.57 15.78 59.07 14.8C58.57 13.82 57.93 13.03 57.16 12.43C56.39 11.82 55.47 11.52 54.4 11.52C53.51 11.52 52.74 11.67 52.1 11.96C51.45 12.26 50.92 12.61 50.51 13.03C50.1 13.45 49.8 13.92 49.61 14.42C49.42 14.93 49.33 15.39 49.33 15.79V26.25C49.33 27.4 49.48 28.33 49.79 29.06C50.1 29.79 50.49 30.36 50.96 30.78C51.44 31.2 51.96 31.49 52.53 31.64C53.1 31.79 53.66 31.87 54.21 31.87C55.44 31.87 56.46 31.54 57.27 30.89C58.08 30.24 58.73 29.41 59.23 28.4C59.73 27.39 60.06 26.29 60.24 25.1C60.42 23.91 60.52 22.75 60.52 21.64V21.66Z" fill="#F4F5D7"/>
<path d="M73.05 30.18C73.2 30.52 73.4101 30.78 73.6701 30.97C73.9301 31.16 74.24 31.27 74.59 31.32C74.9401 31.36 75.3201 31.39 75.7201 31.39V31.58C74.9801 31.58 74.39 31.58 73.9501 31.56C73.5101 31.54 73.12 31.53 72.8 31.51C72.48 31.5 72.18 31.48 71.9 31.47C71.62 31.46 71.2801 31.45 70.8901 31.45C70.4601 31.45 70.11 31.45 69.83 31.47C69.55 31.49 69.25 31.5 68.93 31.51C68.61 31.53 68.23 31.54 67.8 31.56C67.37 31.57 66.79 31.58 66.05 31.58V31.39C66.45 31.39 66.83 31.37 67.18 31.32C67.53 31.28 67.8401 31.16 68.1001 30.97C68.3601 30.78 68.57 30.53 68.72 30.19C68.87 29.85 68.9501 29.38 68.9501 28.76V15.63C68.9501 14.43 68.6701 13.66 68.1001 13.33C67.5301 13 66.85 12.82 66.05 12.82V12.63C67.12 12.48 68.1301 12.26 69.0701 11.99C70.0101 11.71 70.9701 11.36 71.9501 10.93C72.1401 11.6 72.2801 12.4 72.3901 13.3C72.5001 14.2 72.5701 15.06 72.6001 15.86C73.2701 14.36 74.1601 13.16 75.2501 12.27C76.3401 11.38 77.5901 10.93 79.0001 10.93C79.3701 10.93 79.75 10.97 80.13 11.05C80.51 11.13 80.8601 11.24 81.1601 11.4C81.4601 11.56 81.7201 11.77 81.9201 12.04C82.1201 12.32 82.2201 12.64 82.2201 13.01C82.2201 13.53 82.06 13.92 81.74 14.16C81.42 14.4 81.0701 14.53 80.7001 14.53C80.2401 14.53 79.88 14.4 79.62 14.13C79.36 13.87 79.16 13.58 79.02 13.26C78.88 12.95 78.7801 12.65 78.7201 12.37C78.6601 12.09 78.6101 11.93 78.5801 11.9C78.3301 11.71 78.0301 11.62 77.6601 11.62C76.9901 11.62 76.36 11.83 75.77 12.24C75.19 12.66 74.67 13.16 74.23 13.76C73.79 14.36 73.4401 15.01 73.2001 15.7C72.9501 16.39 72.83 17.02 72.83 17.57V28.74C72.83 29.36 72.9101 29.83 73.0601 30.17L73.05 30.18Z" fill="#F4F5D7"/>
<path d="M99.45 28.66C99.08 29.06 98.66 29.46 98.18 29.86C97.7 30.26 97.15 30.63 96.52 30.96C95.89 31.29 95.19 31.57 94.43 31.79C93.66 32 92.82 32.11 91.9 32.11C90.61 32.11 89.37 31.89 88.17 31.44C86.97 30.99 85.91 30.34 84.99 29.48C84.07 28.62 83.32 27.55 82.75 26.28C82.18 25.01 81.9 23.56 81.9 21.93C81.9 20.45 82.15 19.07 82.66 17.78C83.17 16.49 83.88 15.35 84.8 14.37C85.72 13.39 86.8 12.61 88.05 12.04C89.29 11.47 90.65 11.19 92.13 11.19C93.2 11.19 94.23 11.36 95.21 11.7C96.19 12.04 97.05 12.52 97.79 13.13C98.53 13.75 99.13 14.49 99.61 15.37C100.09 16.25 100.36 17.21 100.42 18.25C100.42 18.44 100.42 18.6 100.4 18.76C100.38 18.91 100.3 18.99 100.14 18.99H86.23C86.17 19.42 86.12 19.91 86.09 20.45C86.06 20.99 86.05 21.48 86.05 21.91C86.05 23.27 86.23 24.53 86.58 25.69C86.93 26.85 87.42 27.86 88.03 28.71C88.65 29.56 89.39 30.23 90.27 30.71C91.14 31.19 92.09 31.43 93.1 31.43C93.93 31.43 94.67 31.33 95.31 31.14C95.95 30.95 96.53 30.7 97.04 30.4C97.55 30.1 97.98 29.78 98.35 29.45C98.72 29.12 99.04 28.81 99.32 28.52L99.46 28.66H99.45ZM95.71 18.71C96.2 18.71 96.45 18.47 96.45 17.98C96.45 17.49 96.39 16.74 96.26 15.99C96.13 15.24 95.91 14.53 95.59 13.86C95.27 13.19 94.82 12.63 94.25 12.17C93.68 11.71 92.94 11.48 92.02 11.48C91.1 11.48 90.3 11.74 89.62 12.26C88.94 12.78 88.38 13.41 87.92 14.16C87.46 14.91 87.1 15.69 86.84 16.52C86.58 17.34 86.38 18.07 86.26 18.72H95.7L95.71 18.71Z" fill="#F4F5D7"/>
<path d="M121 30.18C121.15 30.52 121.36 30.78 121.62 30.97C121.88 31.16 122.19 31.27 122.54 31.32C122.89 31.36 123.27 31.39 123.67 31.39V31.58C123.02 31.58 122.49 31.58 122.08 31.56C121.67 31.54 121.3 31.53 120.98 31.51C120.66 31.5 120.34 31.48 120.01 31.47C119.69 31.46 119.33 31.45 118.93 31.45C118.5 31.45 118.12 31.45 117.8 31.47C117.48 31.49 117.14 31.5 116.81 31.51C116.47 31.53 116.1 31.54 115.68 31.56C115.27 31.57 114.75 31.58 114.14 31.58V31.39C114.54 31.39 114.92 31.37 115.27 31.32C115.62 31.28 115.93 31.16 116.19 30.97C116.45 30.78 116.66 30.53 116.81 30.19C116.96 29.85 117.04 29.38 117.04 28.76V18.53C117.04 18.07 117.02 17.46 116.97 16.71C116.92 15.96 116.78 15.21 116.53 14.48C116.29 13.74 115.88 13.11 115.31 12.59C114.74 12.07 113.95 11.81 112.94 11.81C112.3 11.81 111.69 11.96 111.12 12.27C110.55 12.58 110.05 13 109.6 13.54C109.16 14.08 108.81 14.71 108.57 15.45C108.32 16.19 108.2 16.99 108.2 17.85V28.77C108.2 29.38 108.28 29.86 108.43 30.2C108.58 30.54 108.79 30.8 109.05 30.98C109.31 31.17 109.62 31.28 109.97 31.33C110.32 31.37 110.7 31.4 111.1 31.4V31.59C110.45 31.59 109.92 31.59 109.51 31.57C109.09 31.55 108.72 31.54 108.38 31.52C108.04 31.51 107.71 31.49 107.39 31.48C107.07 31.47 106.71 31.46 106.31 31.46C105.88 31.46 105.51 31.46 105.21 31.48C104.9 31.5 104.58 31.51 104.24 31.52C103.9 31.54 103.53 31.55 103.11 31.57C102.7 31.58 102.18 31.59 101.57 31.59V31.4C101.97 31.4 102.35 31.38 102.7 31.33C103.05 31.29 103.36 31.17 103.62 30.98C103.88 30.79 104.09 30.54 104.24 30.2C104.39 29.86 104.47 29.39 104.47 28.77V15.46C104.47 14.88 104.39 14.41 104.24 14.05C104.09 13.7 103.88 13.43 103.62 13.24C103.36 13.06 103.05 12.94 102.7 12.89C102.35 12.85 101.97 12.82 101.57 12.82V12.63C102.64 12.48 103.63 12.26 104.52 11.99C105.41 11.71 106.35 11.36 107.33 10.93C107.48 11.73 107.6 12.44 107.68 13.07C107.76 13.7 107.83 14.46 107.89 15.35C108.5 13.94 109.41 12.88 110.61 12.17C111.81 11.46 113.16 11.11 114.66 11.11C115.95 11.11 117.06 11.45 117.98 12.12C118.9 12.79 119.62 13.67 120.14 14.75C120.94 13.37 121.91 12.42 123.04 11.89C124.17 11.36 125.5 11.11 127 11.11C128.5 11.11 129.63 11.38 130.48 11.91C131.33 12.45 131.96 13.12 132.39 13.91C132.82 14.71 133.09 15.57 133.2 16.49C133.31 17.41 133.36 18.27 133.36 19.07V28.74C133.36 29.35 133.44 29.83 133.59 30.17C133.74 30.51 133.95 30.77 134.21 30.95C134.47 31.13 134.78 31.25 135.13 31.3C135.48 31.34 135.86 31.37 136.26 31.37V31.56C135.62 31.56 135.09 31.56 134.67 31.54C134.26 31.52 133.89 31.51 133.57 31.49C133.25 31.48 132.93 31.46 132.6 31.45C132.28 31.44 131.92 31.43 131.52 31.43C131.09 31.43 130.71 31.43 130.39 31.45C130.07 31.47 129.74 31.48 129.4 31.49C129.06 31.51 128.69 31.52 128.27 31.54C127.85 31.55 127.34 31.56 126.73 31.56V31.37C127.13 31.37 127.51 31.35 127.86 31.3C128.21 31.26 128.52 31.14 128.78 30.95C129.04 30.76 129.25 30.5 129.4 30.16C129.55 29.82 129.63 29.34 129.63 28.73V18.07C129.63 17.73 129.61 17.2 129.56 16.48C129.51 15.76 129.35 15.03 129.08 14.31C128.8 13.59 128.37 12.96 127.79 12.42C127.21 11.88 126.38 11.61 125.3 11.61C124.81 11.61 124.3 11.71 123.78 11.91C123.26 12.11 122.77 12.42 122.33 12.83C121.89 13.24 121.52 13.8 121.23 14.49C120.94 15.18 120.79 16.01 120.79 16.96V28.73C120.79 29.35 120.87 29.82 121.02 30.16L121 30.18Z" fill="#F4F5D7"/>
<path d="M154.86 28.66C154.49 29.06 154.07 29.46 153.59 29.86C153.11 30.26 152.56 30.63 151.93 30.96C151.3 31.29 150.6 31.57 149.84 31.79C149.07 32 148.23 32.11 147.31 32.11C146.02 32.11 144.78 31.89 143.58 31.44C142.38 30.99 141.32 30.34 140.4 29.48C139.48 28.62 138.73 27.55 138.16 26.28C137.59 25.01 137.31 23.56 137.31 21.93C137.31 20.45 137.56 19.07 138.07 17.78C138.58 16.49 139.29 15.35 140.21 14.37C141.13 13.39 142.21 12.61 143.46 12.04C144.7 11.47 146.06 11.19 147.54 11.19C148.61 11.19 149.64 11.36 150.62 11.7C151.6 12.04 152.46 12.52 153.2 13.13C153.94 13.75 154.54 14.49 155.02 15.37C155.5 16.25 155.77 17.21 155.83 18.25C155.83 18.44 155.83 18.6 155.81 18.76C155.79 18.91 155.71 18.99 155.55 18.99H141.64C141.58 19.42 141.53 19.91 141.5 20.45C141.47 20.99 141.46 21.48 141.46 21.91C141.46 23.27 141.64 24.53 141.99 25.69C142.34 26.85 142.83 27.86 143.44 28.71C144.06 29.56 144.8 30.23 145.68 30.71C146.55 31.19 147.5 31.43 148.51 31.43C149.34 31.43 150.08 31.33 150.72 31.14C151.36 30.95 151.94 30.7 152.45 30.4C152.96 30.1 153.39 29.78 153.76 29.45C154.13 29.12 154.45 28.81 154.73 28.52L154.87 28.66H154.86ZM151.13 18.71C151.62 18.71 151.87 18.47 151.87 17.98C151.87 17.49 151.81 16.74 151.68 15.99C151.55 15.24 151.33 14.53 151.01 13.86C150.69 13.19 150.24 12.63 149.67 12.17C149.1 11.71 148.36 11.48 147.44 11.48C146.52 11.48 145.72 11.74 145.04 12.26C144.36 12.78 143.8 13.41 143.34 14.16C142.88 14.91 142.52 15.69 142.26 16.52C142 17.34 141.8 18.07 141.68 18.72H151.12L151.13 18.71Z" fill="#F4F5D7"/>
<path d="M169.65 10.97C169.65 11.55 169.65 12.05 169.63 12.47C169.61 12.88 169.61 13.31 169.61 13.74C169.61 14.17 169.61 14.68 169.63 15.28C169.64 15.88 169.65 16.49 169.65 17.1H169.47C169.44 16.52 169.32 15.9 169.12 15.23C168.92 14.56 168.61 13.94 168.2 13.38C167.79 12.81 167.26 12.34 166.63 11.96C166 11.58 165.24 11.39 164.35 11.39C163.37 11.39 162.55 11.7 161.88 12.31C161.21 12.92 160.89 13.67 160.89 14.55C160.89 15.28 161.1 15.92 161.51 16.48C161.93 17.03 162.44 17.51 163.05 17.92C163.67 18.33 164.34 18.71 165.08 19.04C165.82 19.37 166.49 19.73 167.11 20.09C168.49 20.89 169.57 21.73 170.33 22.63C171.1 23.52 171.48 24.67 171.48 26.08C171.48 27.13 171.27 28.02 170.86 28.78C170.45 29.53 169.91 30.15 169.25 30.64C168.59 31.13 167.85 31.5 167.04 31.75C166.23 31.99 165.44 32.12 164.67 32.12C163.78 32.12 162.86 31.99 161.91 31.73C160.96 31.47 160.13 31.08 159.42 30.56L158.55 31.85H158.36C158.36 31.18 158.36 30.58 158.38 30.08C158.4 29.57 158.4 29.06 158.4 28.54C158.4 28.02 158.39 27.53 158.36 27.06C158.33 26.6 158.32 26.06 158.32 25.45H158.5C158.62 26.22 158.81 26.98 159.08 27.73C159.35 28.48 159.7 29.17 160.16 29.78C160.62 30.4 161.2 30.89 161.91 31.28C162.62 31.66 163.46 31.85 164.44 31.85C164.9 31.85 165.38 31.77 165.87 31.6C166.36 31.43 166.81 31.17 167.23 30.82C167.64 30.47 167.98 30.04 168.24 29.55C168.5 29.06 168.63 28.49 168.63 27.85C168.63 27.21 168.48 26.58 168.17 26.08C167.86 25.58 167.46 25.14 166.97 24.77C166.48 24.4 165.94 24.07 165.36 23.78C164.78 23.49 164.21 23.19 163.66 22.88C163.02 22.51 162.38 22.14 161.75 21.78C161.12 21.42 160.57 20.99 160.09 20.51C159.61 20.03 159.23 19.48 158.94 18.85C158.65 18.22 158.5 17.46 158.5 16.57C158.5 15.74 158.66 14.99 158.98 14.31C159.3 13.64 159.73 13.06 160.27 12.58C160.81 12.1 161.41 11.74 162.09 11.5C162.76 11.25 163.47 11.13 164.21 11.13C165.25 11.13 166.11 11.24 166.79 11.47C167.47 11.7 168.04 11.94 168.5 12.18L169.47 10.98H169.65V10.97Z" fill="#F4F5D7"/>
<path d="M180.29 11.39C179.92 11.39 179.51 11.43 179.04 11.53C178.58 11.62 178.14 11.75 177.73 11.93C177.32 12.1 176.96 12.3 176.67 12.53C176.38 12.76 176.23 13.02 176.23 13.3C176.23 13.36 176.27 13.52 176.37 13.79C176.46 14.05 176.51 14.4 176.51 14.84C176.51 15.18 176.4 15.55 176.19 15.93C175.97 16.32 175.57 16.51 174.99 16.51C174.62 16.51 174.28 16.39 173.95 16.14C173.63 15.9 173.47 15.45 173.47 14.8C173.47 14.13 173.75 13.55 174.32 13.07C174.89 12.59 175.59 12.21 176.42 11.92C177.25 11.63 178.11 11.42 179 11.3C179.89 11.18 180.66 11.12 181.3 11.12C182.34 11.12 183.33 11.22 184.25 11.42C185.17 11.62 185.97 11.97 186.65 12.46C187.32 12.95 187.85 13.62 188.24 14.44C188.62 15.27 188.82 16.32 188.82 17.58V27.69C188.82 27.94 188.82 28.24 188.84 28.59C188.85 28.94 188.91 29.28 189 29.61C189.09 29.93 189.25 30.21 189.46 30.44C189.68 30.67 189.97 30.79 190.34 30.79C190.77 30.79 191.13 30.61 191.42 30.24C191.71 29.88 191.93 29.57 192.09 29.31L192.28 29.4C192.22 29.55 192.09 29.78 191.91 30.07C191.72 30.36 191.48 30.65 191.17 30.94C190.86 31.23 190.5 31.49 190.07 31.72C189.64 31.95 189.15 32.07 188.6 32.07C187.55 32.07 186.76 31.78 186.23 31.2C185.7 30.62 185.35 29.91 185.2 29.08C184.12 29.97 183 30.69 181.83 31.24C180.66 31.79 179.36 32.07 177.92 32.07C177.24 32.07 176.61 31.98 176.03 31.79C175.45 31.6 174.93 31.32 174.49 30.94C174.05 30.56 173.69 30.07 173.43 29.49C173.17 28.91 173.04 28.22 173.04 27.42C173.04 26.41 173.29 25.57 173.8 24.91C174.31 24.25 174.85 23.73 175.44 23.37C176.36 22.75 177.41 22.21 178.57 21.73C179.73 21.25 180.9 20.75 182.07 20.23C182.41 20.08 182.76 19.92 183.13 19.75C183.5 19.58 183.83 19.42 184.12 19.26C184.41 19.11 184.65 18.96 184.83 18.82C185.02 18.68 185.11 18.54 185.11 18.38V16.9C185.11 16.47 185.07 15.93 184.99 15.3C184.91 14.67 184.71 14.06 184.39 13.49C184.07 12.92 183.58 12.42 182.94 12.01C182.29 11.59 181.42 11.38 180.31 11.38L180.29 11.39ZM185.08 19.08C184.19 19.54 183.22 20.01 182.18 20.49C181.13 20.97 180.23 21.47 179.46 21.99C178.57 22.61 177.92 23.37 177.5 24.28C177.08 25.19 176.88 26.04 176.88 26.84C176.88 27.3 176.93 27.76 177.04 28.23C177.15 28.69 177.34 29.11 177.62 29.48C177.9 29.85 178.25 30.16 178.68 30.4C179.11 30.64 179.65 30.77 180.29 30.77C181.36 30.77 182.29 30.59 183.08 30.22C183.86 29.85 184.53 29.37 185.08 28.79V19.08Z" fill="#F4F5D7"/>
<path d="M195.17 0.769958C195.97 0.769958 196.62 0.769963 197.13 0.789963C197.64 0.809963 198.08 0.819966 198.47 0.839966C198.85 0.849966 199.22 0.869959 199.57 0.879959C199.92 0.899959 200.36 0.899963 200.88 0.899963C201.37 0.899963 201.8 0.899959 202.17 0.879959C202.54 0.869959 202.91 0.849966 203.3 0.839966C203.68 0.819966 204.13 0.809963 204.64 0.789963C205.15 0.779963 205.8 0.769958 206.6 0.769958V0.959961C206.14 0.959961 205.7 0.999956 205.29 1.07996C204.88 1.15996 204.51 1.29996 204.19 1.51996C203.87 1.73996 203.61 2.02997 203.41 2.41997C203.21 2.79997 203.11 3.31996 203.11 3.95996V28.42C203.11 29.06 203.21 29.58 203.41 29.96C203.61 30.35 203.87 30.65 204.19 30.86C204.51 31.07 204.88 31.22 205.29 31.3C205.71 31.38 206.14 31.41 206.6 31.41V31.6C205.8 31.6 205.15 31.6 204.64 31.58C204.13 31.56 203.69 31.55 203.3 31.53C202.91 31.52 202.54 31.5 202.17 31.49C201.8 31.48 201.37 31.47 200.88 31.47C200.36 31.47 199.92 31.47 199.57 31.49C199.22 31.51 198.85 31.52 198.47 31.53C198.08 31.55 197.64 31.56 197.13 31.58C196.62 31.59 195.97 31.6 195.17 31.6V31.41C195.63 31.41 196.07 31.37 196.48 31.3C196.9 31.22 197.26 31.08 197.58 30.86C197.9 30.65 198.16 30.35 198.36 29.96C198.56 29.58 198.66 29.06 198.66 28.42V3.95996C198.66 3.30996 198.56 2.79997 198.36 2.41997C198.16 2.02997 197.9 1.73996 197.58 1.51996C197.26 1.30996 196.89 1.15996 196.48 1.07996C196.07 0.999956 195.63 0.959961 195.17 0.959961V0.769958Z" fill="#F4F5D7"/>
<path d="M221.89 4.44997C221.89 3.86997 221.81 3.39996 221.66 3.03996C221.51 2.68996 221.29 2.41997 221.01 2.22997C220.73 2.04997 220.41 1.92997 220.04 1.88997C219.67 1.83997 219.26 1.81996 218.8 1.81996V1.62996C219.94 1.53996 221.07 1.34997 222.21 1.05997C223.35 0.769967 224.48 0.419959 225.62 0.0199585V26.46C225.62 27.97 225.9 28.98 226.47 29.5C227.04 30.02 227.84 30.28 228.89 30.28V30.47C228.09 30.62 227.19 30.85 226.17 31.14C225.16 31.43 224.19 31.72 223.27 31.99C223.12 31.59 222.97 31.1 222.83 30.52C222.69 29.94 222.56 29.31 222.44 28.63C221.73 29.52 220.87 30.33 219.86 31.05C218.85 31.77 217.54 32.13 215.94 32.13C214.4 32.13 213.04 31.84 211.84 31.25C210.64 30.67 209.63 29.88 208.8 28.9C207.97 27.92 207.34 26.77 206.91 25.47C206.48 24.17 206.27 22.79 206.27 21.35C206.27 20.03 206.51 18.76 206.98 17.53C207.46 16.3 208.12 15.23 208.98 14.31C209.84 13.39 210.87 12.65 212.09 12.1C213.3 11.55 214.66 11.27 216.17 11.27C217.52 11.27 218.66 11.56 219.58 12.14C220.5 12.72 221.27 13.35 221.89 14.03V4.44997ZM210.6 21.56C210.6 22.3 210.68 23.25 210.83 24.4C210.98 25.56 211.27 26.66 211.7 27.73C212.13 28.79 212.74 29.71 213.54 30.48C214.34 31.25 215.38 31.63 216.67 31.63C218.15 31.63 219.38 31.1 220.38 30.04C221.38 28.98 221.88 27.29 221.88 24.99V16.26C221.88 15.77 221.76 15.25 221.53 14.69C221.3 14.14 220.96 13.63 220.52 13.17C220.08 12.71 219.52 12.32 218.86 12.01C218.2 11.7 217.42 11.55 216.53 11.55C215.46 11.55 214.55 11.85 213.81 12.45C213.07 13.05 212.46 13.84 211.97 14.81C211.48 15.78 211.13 16.86 210.91 18.04C210.7 19.23 210.59 20.4 210.59 21.57L210.6 21.56Z" fill="#F4F5D7"/>
<path d="M247.17 28.68C246.8 29.08 246.38 29.48 245.9 29.88C245.42 30.28 244.87 30.65 244.24 30.98C243.61 31.31 242.91 31.59 242.15 31.81C241.38 32.02 240.54 32.13 239.62 32.13C238.33 32.13 237.09 31.91 235.89 31.46C234.69 31.01 233.63 30.36 232.71 29.5C231.79 28.64 231.04 27.57 230.47 26.3C229.9 25.03 229.62 23.58 229.62 21.95C229.62 20.47 229.87 19.09 230.38 17.8C230.89 16.51 231.6 15.37 232.52 14.39C233.44 13.41 234.52 12.63 235.77 12.06C237.01 11.49 238.37 11.21 239.85 11.21C240.92 11.21 241.95 11.38 242.93 11.72C243.91 12.06 244.77 12.54 245.51 13.15C246.25 13.77 246.85 14.51 247.33 15.39C247.81 16.27 248.08 17.23 248.14 18.27C248.14 18.46 248.14 18.62 248.12 18.78C248.1 18.93 248.02 19.01 247.86 19.01H233.95C233.89 19.44 233.84 19.93 233.81 20.47C233.78 21.01 233.77 21.5 233.77 21.93C233.77 23.29 233.95 24.55 234.3 25.71C234.65 26.87 235.14 27.88 235.75 28.73C236.37 29.58 237.11 30.25 237.99 30.73C238.86 31.21 239.81 31.45 240.82 31.45C241.65 31.45 242.39 31.35 243.03 31.16C243.67 30.97 244.25 30.72 244.76 30.42C245.27 30.12 245.7 29.8 246.07 29.47C246.44 29.14 246.76 28.83 247.04 28.54L247.18 28.68H247.17ZM243.44 18.73C243.93 18.73 244.18 18.49 244.18 18C244.18 17.42 244.12 16.76 243.99 16.01C243.86 15.26 243.64 14.55 243.32 13.88C243 13.21 242.55 12.65 241.98 12.19C241.41 11.73 240.67 11.5 239.75 11.5C238.83 11.5 238.03 11.76 237.35 12.28C236.67 12.8 236.11 13.43 235.65 14.18C235.19 14.93 234.83 15.71 234.57 16.54C234.31 17.36 234.11 18.09 233.99 18.74H243.43L243.44 18.73Z" fill="#F4F5D7"/>
<path d="M252.1 15.51C252.1 14.93 252.02 14.46 251.87 14.1C251.72 13.75 251.51 13.48 251.25 13.3C250.99 13.11 250.68 13 250.33 12.95C249.98 12.9 249.6 12.88 249.2 12.88V12.7C250.33 12.58 251.44 12.39 252.51 12.12C253.58 11.85 254.69 11.51 255.83 11.08V28.77C255.83 29.38 255.91 29.86 256.06 30.2C256.21 30.54 256.42 30.8 256.68 30.98C256.94 31.16 257.25 31.28 257.6 31.33C257.95 31.37 258.33 31.4 258.73 31.4V31.59C258.09 31.59 257.55 31.59 257.14 31.57C256.72 31.55 256.36 31.54 256.04 31.52C255.72 31.51 255.39 31.49 255.07 31.48C254.75 31.47 254.39 31.46 253.99 31.46C253.56 31.46 253.19 31.46 252.86 31.48C252.54 31.5 252.21 31.51 251.87 31.52C251.53 31.54 251.16 31.55 250.74 31.57C250.33 31.58 249.81 31.59 249.2 31.59V31.4C249.6 31.4 249.97 31.38 250.33 31.33C250.68 31.29 250.99 31.17 251.25 30.98C251.51 30.79 251.72 30.54 251.87 30.2C252.02 29.86 252.1 29.39 252.1 28.77V15.5V15.51ZM253.35 1.73999C254.06 1.73999 254.65 1.98 255.12 2.45C255.6 2.93 255.83 3.51999 255.83 4.21999C255.83 4.91999 255.59 5.47 255.12 5.95C254.65 6.43 254.05 6.65999 253.35 6.65999C252.65 6.65999 252.1 6.42 251.62 5.95C251.14 5.47 250.91 4.89999 250.91 4.21999C250.91 3.50999 251.15 2.92 251.62 2.45C252.09 1.98 252.67 1.73999 253.35 1.73999Z" fill="#F4F5D7"/>
<path d="M267.17 11.41C266.8 11.41 266.39 11.45 265.92 11.55C265.46 11.64 265.02 11.77 264.61 11.95C264.2 12.12 263.84 12.32 263.55 12.55C263.26 12.78 263.11 13.04 263.11 13.32C263.11 13.38 263.15 13.54 263.25 13.81C263.34 14.07 263.39 14.42 263.39 14.86C263.39 15.3 263.28 15.57 263.07 15.95C262.85 16.34 262.45 16.53 261.87 16.53C261.5 16.53 261.16 16.41 260.83 16.16C260.51 15.92 260.35 15.47 260.35 14.82C260.35 14.17 260.63 13.57 261.2 13.09C261.77 12.61 262.47 12.23 263.3 11.94C264.13 11.65 264.99 11.44 265.88 11.32C266.77 11.2 267.54 11.14 268.18 11.14C269.22 11.14 270.21 11.24 271.13 11.44C272.05 11.64 272.85 11.99 273.53 12.48C274.2 12.97 274.73 13.64 275.12 14.46C275.5 15.29 275.7 16.34 275.7 17.6V27.71C275.7 27.96 275.7 28.26 275.72 28.61C275.73 28.96 275.79 29.3 275.88 29.63C275.97 29.95 276.13 30.23 276.34 30.46C276.56 30.69 276.85 30.81 277.22 30.81C277.65 30.81 278.01 30.63 278.3 30.26C278.59 29.9 278.81 29.59 278.97 29.33L279.16 29.42C279.1 29.57 278.97 29.8 278.79 30.09C278.6 30.38 278.36 30.67 278.05 30.96C277.74 31.25 277.38 31.51 276.95 31.74C276.52 31.97 276.03 32.09 275.48 32.09C274.43 32.09 273.64 31.8 273.11 31.22C272.58 30.64 272.23 29.93 272.08 29.1C271 29.99 269.88 30.71 268.71 31.26C267.54 31.81 266.24 32.09 264.8 32.09C264.12 32.09 263.49 32 262.91 31.81C262.33 31.62 261.81 31.34 261.37 30.96C260.93 30.58 260.57 30.09 260.31 29.51C260.05 28.93 259.92 28.24 259.92 27.44C259.92 26.43 260.17 25.59 260.68 24.93C261.19 24.27 261.73 23.75 262.32 23.39C263.24 22.77 264.29 22.23 265.45 21.75C266.61 21.27 267.78 20.77 268.95 20.25C269.29 20.1 269.64 19.94 270.01 19.77C270.38 19.6 270.71 19.44 271 19.28C271.29 19.13 271.53 18.98 271.71 18.84C271.9 18.7 271.99 18.56 271.99 18.4V16.92C271.99 16.49 271.95 15.95 271.87 15.32C271.79 14.69 271.59 14.08 271.27 13.51C270.95 12.94 270.46 12.44 269.82 12.03C269.17 11.61 268.3 11.4 267.19 11.4L267.17 11.41ZM271.96 19.1C271.07 19.56 270.1 20.03 269.06 20.51C268.01 20.99 267.11 21.49 266.34 22.01C265.45 22.63 264.8 23.39 264.38 24.3C263.96 25.21 263.76 26.06 263.76 26.86C263.76 27.32 263.81 27.78 263.92 28.25C264.03 28.71 264.22 29.13 264.5 29.5C264.78 29.87 265.13 30.18 265.56 30.42C265.99 30.66 266.53 30.79 267.17 30.79C268.24 30.79 269.17 30.61 269.96 30.24C270.74 29.87 271.41 29.39 271.96 28.81V19.1Z" fill="#F4F5D7"/>
<path d="M291.03 10.99C291.03 11.57 291.03 12.07 291.01 12.49C290.99 12.9 290.99 13.33 290.99 13.76C290.99 14.19 290.99 14.7 291.01 15.3C291.02 15.9 291.03 16.51 291.03 17.12H290.85C290.82 16.54 290.7 15.92 290.5 15.25C290.3 14.58 289.99 13.96 289.58 13.4C289.17 12.83 288.64 12.36 288.01 11.98C287.38 11.6 286.62 11.41 285.73 11.41C284.75 11.41 283.93 11.72 283.26 12.33C282.6 12.94 282.27 13.69 282.27 14.57C282.27 15.3 282.48 15.94 282.89 16.5C283.31 17.05 283.82 17.53 284.43 17.94C285.05 18.35 285.72 18.73 286.46 19.06C287.2 19.39 287.87 19.75 288.49 20.11C289.87 20.91 290.95 21.75 291.71 22.65C292.48 23.54 292.86 24.69 292.86 26.1C292.86 27.15 292.65 28.04 292.24 28.8C291.83 29.55 291.29 30.17 290.63 30.66C289.97 31.15 289.23 31.52 288.42 31.77C287.61 32.01 286.82 32.14 286.05 32.14C285.16 32.14 284.24 32.01 283.29 31.75C282.34 31.49 281.51 31.1 280.8 30.58L279.93 31.87H279.74C279.74 31.2 279.74 30.6 279.76 30.1C279.78 29.59 279.78 29.08 279.78 28.56C279.78 28.04 279.77 27.55 279.74 27.08C279.71 26.62 279.7 26.08 279.7 25.47H279.88C280 26.24 280.19 27 280.46 27.75C280.73 28.5 281.08 29.19 281.54 29.8C282 30.42 282.58 30.91 283.29 31.3C284 31.68 284.84 31.87 285.82 31.87C286.28 31.87 286.76 31.79 287.25 31.62C287.74 31.45 288.19 31.19 288.61 30.84C289.02 30.49 289.36 30.06 289.62 29.57C289.88 29.08 290.01 28.51 290.01 27.87C290.01 27.23 289.86 26.6 289.55 26.1C289.24 25.6 288.84 25.16 288.35 24.79C287.86 24.42 287.32 24.09 286.74 23.8C286.16 23.51 285.59 23.21 285.04 22.9C284.4 22.53 283.76 22.16 283.13 21.8C282.5 21.44 281.95 21.01 281.47 20.53C280.99 20.05 280.61 19.5 280.32 18.87C280.03 18.24 279.88 17.48 279.88 16.59C279.88 15.76 280.04 15.01 280.36 14.33C280.68 13.66 281.11 13.08 281.65 12.6C282.19 12.12 282.79 11.76 283.47 11.52C284.14 11.27 284.85 11.15 285.59 11.15C286.63 11.15 287.49 11.26 288.17 11.49C288.85 11.72 289.42 11.96 289.88 12.2L290.85 11H291.03V10.99Z" fill="#F4F5D7"/>
</svg>
